# xmcd CD database file generated by MAGIX-FreeDB-Music_Manager_2007 v2.0beta1
# 
# Track frame offsets:
#      183
#      19513
#      34210
#      52775
#      68673
#      81213
#      95100
#      114240
#      130015
#      147890
#      165825
#      181550
#      193175
#      206660
#      220293
#      237708
#      252858
#      268868
#      282253
#      298800
#      311705
# 
# Disc length: 4366 seconds
# 
# Revision: 3 
# Processed by: cddbd v1.5.2PL0 Copyright (c) Steve Scherf et al.
# Submitted via: MAGIX-FreeDB-Music_Manager_2007 v2.0beta1
# 
DISCID=33110c15
DTITLE=Various Artist - Goldene Schlager Erinnerungen
DYEAR=1970
DGENRE=
TTITLE0=Peter Alexander - Die kleine Kneipe
TTITLE1=Peter Alexander - Hier ist ein Mensch
TTITLE2=Peter Alexander - Leben heißt lieben
TTITLE3=Peter Alexander - Feierabend
TTITLE4=Peter Alexander - Oh, Lady Mary
TTITLE5=Peter Alexander - Das Wunder bist du
TTITLE6=Peter Alexander - Irgendwann brennt für jeden ein Licht
TTITLE7=Peter Alexander - Unser täglich Brot ist die Liebe
TTITLE8=Peter Alexander - Und manchmal weinst du sicher ein paar Tränen
TTITLE9=Peter Alexander - Schwarzes Gold
TTITLE10=Mireille Mathieu - Akropolis, adieu
TTITLE11=Mireille Mathieu - Hinter den Kulissen von Paris
TTITLE12=Mireille Mathieu - Martin
TTITLE13=Mireille Mathieu - Der Zar und das Mädchen
TTITLE14=Mireille Mathieu - La Palome ade
TTITLE15=Mireille Mathieu - An einem Sonntag in Avignon
TTITLE16=Mireille Mathieu - Ganz Paris ist ein Theater
TTITLE17=Mireille Mathieu - Hans im Glück
TTITLE18=Mireille Mathieu - Santa Maria
TTITLE19=Mireille Mathieu - Der Pariser Tango
TTITLE20=Mireille Mathieu - Walzer der Liebe
EXTD=
EXTT0=
EXTT1=
EXTT2=
EXTT3=
EXTT4=
EXTT5=
EXTT6=
EXTT7=
EXTT8=
EXTT9=
EXTT10=
EXTT11=
EXTT12=
EXTT13=
EXTT14=
EXTT15=
EXTT16=
EXTT17=
EXTT18=
EXTT19=
EXTT20=
PLAYORDER=
